HIERARCHY
ROOT Hips
{
	OFFSET 0 0 0
	CHANNELS 6 Xposition Yposition Zposition Yrotation Xrotation Zrotation
	JOINT Spine
	{
		OFFSET -0 8.31378 -2.65002
		CHANNELS 3 Yrotation Xrotation Zrotation
		JOINT Spine1
		{
			OFFSET -0 7.96536 0
			CHANNELS 3 Yrotation Xrotation Zrotation
			JOINT Spine2
			{
				OFFSET -0 7.96536 0
				CHANNELS 3 Yrotation Xrotation Zrotation
				JOINT Spine3
				{
					OFFSET -0 7.96536 0
					CHANNELS 3 Yrotation Xrotation Zrotation
					JOINT Neck
					{
						OFFSET -0 18.6584 3.65002
						CHANNELS 3 Yrotation Xrotation Zrotation
						JOINT Head
						{
							OFFSET -0 10.3922 0
							CHANNELS 3 Yrotation Xrotation Zrotation
							End Site
							{
								OFFSET 0 15 0
							}
						}
					}
					JOINT LeftShoulder
					{
						OFFSET 1.73204 6.34351 3.46407
						CHANNELS 3 Yrotation Xrotation Zrotation
						JOINT LeftArm
						{
							OFFSET 17.8466 0 0
							CHANNELS 3 Yrotation Xrotation Zrotation
							JOINT LeftForeArm
							{
								OFFSET 23.3234 0 0
								CHANNELS 3 Yrotation Xrotation Zrotation
								JOINT LeftHand
								{
									OFFSET 21.6146 0 0
									CHANNELS 3 Yrotation Xrotation Zrotation
									End Site
									{
										OFFSET 15 0 0
									}
								}
							}
						}
					}
					JOINT RightShoulder
					{
						OFFSET -1.73204 6.34351 3.46407
						CHANNELS 3 Yrotation Xrotation Zrotation
						JOINT RightArm
						{
							OFFSET -17.8466 0 0
							CHANNELS 3 Yrotation Xrotation Zrotation
							JOINT RightForeArm
							{
								OFFSET -23.3234 0 0
								CHANNELS 3 Yrotation Xrotation Zrotation
								JOINT RightHand
								{
									OFFSET -21.6146 0 0
									CHANNELS 3 Yrotation Xrotation Zrotation
									End Site
									{
										OFFSET -15 0 0
									}
								}
							}
						}
					}
				}
			}
		}
	}
	JOINT LeftUpLeg
	{
		OFFSET 10.3922 -3.46407 2
		CHANNELS 3 Yrotation Xrotation Zrotation
		JOINT LeftLeg
		{
			OFFSET -0 -40.8293 2.42485
			CHANNELS 3 Yrotation Xrotation Zrotation
			JOINT LeftFoot
			{
				OFFSET -0 -39.9583 -2.42485
				CHANNELS 3 Yrotation Xrotation Zrotation
				JOINT LeftToeBase
				{
					OFFSET -0 -6.68739 15.5883
					CHANNELS 3 Yrotation Xrotation Zrotation
					End Site
					{
						OFFSET 0 0 5
					}
				}
			}
		}
	}
	JOINT RightUpLeg
	{
		OFFSET -10.3922 -3.46407 2
		CHANNELS 3 Yrotation Xrotation Zrotation
		JOINT RightLeg
		{
			OFFSET -0 -40.8293 2.42485
			CHANNELS 3 Yrotation Xrotation Zrotation
			JOINT RightFoot
			{
				OFFSET -0 -39.9583 -2.42485
				CHANNELS 3 Yrotation Xrotation Zrotation
				JOINT RightToeBase
				{
					OFFSET -0 -6.68739 15.5883
					CHANNELS 3 Yrotation Xrotation Zrotation
					End Site
					{
						OFFSET 0 0 5
					}
				}
			}
		}
	}
}
MOTION
Frames: 16
Frame Time: 0.00833333
-116.883740 83.719080 46.473697 48.006491 5.040070 -9.333183 -1.247689 3.211010 9.067667 -1.189712 2.604487 4.593654 -5.680497 0.504396 1.528354 -7.805238 -1.533075 -0.871581 -14.224002 -1.397069 0.764968 -5.935419 6.675982 5.192339 -7.216159 -1.099381 19.450911 -39.972899 -4.120155 -10.733540 -53.464714 11.501669 -7.362777 -3.177664 5.457451 24.971837 8.599986 1.907143 -27.336970 18.292482 -4.426398 6.580950 36.980413 -6.832462 1.335064 -5.492892 15.414254 -6.730449 25.489864 7.111752 -2.859354 0.000000 29.034521 0.000000 13.428332 -25.654024 -1.126848 0.000000 -18.134599 0.000000 -28.064884 -44.185681 19.806173 0.000000 50.651628 0.000000 -25.951068 -8.315088 -23.202817 0.000000 -10.415546 0.000000
-116.074707 84.478937 47.429987 46.462045 5.287198 -9.627348 -1.712214 3.047973 9.511976 -1.775608 2.430680 4.783535 -5.328472 0.313803 1.573628 -7.240631 -1.571834 -0.706698 -13.342208 -0.672414 0.311971 -5.511666 6.841251 4.790499 -6.455956 -0.232476 19.557820 -35.577491 -1.121179 -12.556082 -57.322360 12.168923 -8.933426 -2.592569 5.259863 25.607810 7.508886 2.325494 -27.483578 17.135559 -3.200781 6.787757 41.121756 -6.632667 3.026462 -4.520495 16.969875 -4.897302 24.958791 7.935837 -2.756177 0.000000 27.056448 0.000000 15.062823 -22.885874 -3.588580 0.000000 -19.183375 0.000000 -27.579188 -41.372647 19.723530 0.000000 44.647343 0.000000 -27.325641 -8.493386 -22.985935 0.000000 -10.936364 0.000000
-115.295288 85.195197 48.434100 44.937794 5.451780 -9.862293 -2.123616 2.971668 9.631154 -2.202164 2.447582 4.988356 -5.073893 -0.116816 1.757649 -6.823295 -1.481877 -0.248453 -12.186511 -0.277051 0.349437 -5.066959 7.418037 3.325650 -5.575638 0.192990 19.754050 -31.897807 2.132519 -14.955734 -60.953471 13.464833 -10.247170 -2.506096 5.023987 24.989382 6.379512 2.747921 -27.937833 15.908837 -3.086801 7.471423 45.234617 -5.447186 5.163827 -3.770942 18.454824 -2.114648 24.679595 8.708175 -2.550595 0.000000 25.514824 0.000000 16.251661 -20.118503 -5.660050 0.000000 -20.067677 0.000000 -27.081162 -38.390275 19.649373 0.000000 38.360988 0.000000 -27.800109 -8.479152 -22.784137 0.000000 -10.988202 0.000000
-114.542688 85.877045 49.478494 43.472007 5.715283 -9.968757 -2.546698 2.827572 9.469222 -2.565074 2.315364 5.102124 -4.797202 -0.225079 2.312115 -6.457746 -1.470179 0.118736 -11.227745 -0.269584 -0.023272 -4.655511 8.533862 2.587773 -4.445065 0.786508 19.758557 -28.831153 5.328983 -16.890163 -64.906741 14.419418 -11.781621 -2.170007 3.370414 24.592566 5.006984 2.999441 -28.376077 14.845986 -2.282609 8.079694 49.557964 -3.948687 7.249811 -2.407544 18.140491 -0.015341 24.315640 9.304383 -2.446003 0.000000 24.270438 0.000000 17.197235 -17.441053 -7.836254 0.000000 -20.943691 0.000000 -26.532532 -35.547321 19.490658 0.000000 31.961146 0.000000 -27.466736 -7.887230 -22.397312 0.000000 -11.183545 0.000000
-113.839246 86.562054 50.483328 41.664843 6.101386 -10.406178 -2.625494 2.816968 9.714927 -2.636631 1.987338 5.396049 -4.506706 -0.475629 2.567135 -6.035848 -1.536606 0.415455 -10.409440 0.074423 0.116438 -4.383901 9.313170 1.469202 -3.443070 1.437369 19.896990 -26.544606 8.331951 -18.945144 -68.621290 15.362452 -13.601153 -1.829376 1.545394 24.022071 3.220546 3.400561 -28.296033 13.784663 -1.475742 8.173600 53.761844 -4.068139 9.422152 -1.493228 18.653302 2.108517 24.574449 9.283446 -2.006427 0.000000 23.848627 0.000000 17.605290 -15.079447 -10.056480 0.000000 -20.672638 0.000000 -25.667977 -33.835487 19.580031 0.000000 27.239326 0.000000 -26.187522 -4.264684 -20.060726 0.000000 -13.442186 0.000000
-113.162683 87.160986 51.537939 40.003559 6.397515 -10.608704 -2.775079 2.809975 9.618110 -2.755840 1.874192 5.565565 -4.339067 -0.786976 2.975915 -5.753454 -1.501119 0.736871 -9.527818 -0.096134 0.132647 -4.075566 10.668735 0.646126 -2.156898 1.740749 20.106035 -24.403546 11.257741 -21.133590 -72.543573 15.451167 -15.565328 -1.006783 0.208347 22.813955 1.672868 3.680711 -28.248317 12.809265 0.000754 8.452048 57.817047 -3.942474 11.298036 -0.107336 18.567896 2.829079 24.761948 9.408762 -1.695159 0.000000 23.706440 0.000000 17.809751 -12.882899 -11.546374 0.000000 -19.666429 0.000000 -25.116971 -31.796991 19.724841 0.000000 22.403363 0.000000 -23.787914 -0.918914 -20.425037 0.000000 -13.228741 0.000000
-112.512134 87.672827 52.642920 38.440714 6.690801 -10.679526 -2.893970 2.587972 9.379882 -2.839476 1.739895 5.620156 -4.152286 -0.918656 3.127020 -5.419479 -1.392282 1.338678 -8.954579 0.017204 0.269234 -3.899547 11.539419 0.088507 -1.149642 2.004450 20.595739 -22.724785 14.241941 -23.871635 -76.214020 15.096736 -16.808484 -0.387112 -1.979751 20.657800 -0.017101 4.071949 -28.036743 11.417120 1.465638 8.733637 61.868611 -4.187852 13.051836 1.202927 17.676671 3.933152 24.805415 9.436853 -1.454780 0.000000 24.196688 0.000000 18.008954 -10.978563 -12.699565 0.000000 -17.356455 0.000000 -24.611637 -29.803437 19.821771 0.000000 17.996098 0.000000 -21.021604 2.787816 -19.688778 0.000000 -14.947280 0.000000
-111.880493 88.086823 53.738788 36.661762 7.031851 -10.708418 -3.379396 2.420230 9.343361 -3.347024 1.515708 5.679509 -3.423377 -0.847260 2.878270 -4.325552 -1.243986 1.775236 -8.454328 -0.245657 0.821783 -3.832498 12.652061 -0.635331 -0.321669 2.343845 21.087231 -21.063541 17.195644 -26.293073 -79.854576 14.805954 -18.170071 -0.113861 -3.035945 18.877344 -1.997935 4.123993 -27.510899 10.215551 3.693911 9.013610 65.925858 -4.853127 14.216342 1.798556 15.356569 4.959367 25.175584 9.277558 -1.262367 0.000000 25.250783 0.000000 18.452761 -9.320019 -13.745859 0.000000 -15.166010 0.000000 -23.659079 -28.431841 19.795363 0.000000 14.869674 0.000000 -18.559402 5.528760 -18.487260 0.000000 -15.315967 0.000000
-111.297778 88.407251 54.829401 34.870062 7.392647 -10.640232 -3.394326 2.169791 9.013340 -3.295450 1.381795 5.663148 -3.065512 -0.899782 3.173043 -3.862842 -1.241050 1.906771 -8.158689 -0.193012 0.850989 -3.681997 13.143723 -0.318736 0.520139 2.432600 21.447736 -19.530299 20.349190 -28.596036 -83.481116 13.713115 -19.422595 0.731012 -3.305791 17.597255 -3.879058 4.317672 -26.975568 8.750072 5.643261 9.569512 69.870507 -5.265269 15.373584 2.882993 13.887056 5.991459 25.767160 8.939090 -1.195945 0.000000 27.029868 0.000000 19.147812 -8.054726 -13.571956 0.000000 -14.367835 0.000000 -22.656509 -27.549228 19.777101 0.000000 13.052582 0.000000 -16.228431 7.626034 -17.619231 0.000000 -15.247542 0.000000
-110.697827 88.617053 55.902539 33.080121 7.680491 -10.520435 -3.344597 2.141649 8.699191 -3.198247 1.145374 5.701423 -2.799276 -1.055066 3.392064 -3.484343 -1.265985 2.032750 -7.680682 -0.244259 1.068060 -3.529554 13.694019 -0.487115 1.760562 2.713253 21.462981 -18.048516 23.324897 -30.421383 -87.268147 13.195889 -20.485958 1.414483 -3.327448 16.442234 -5.783771 4.494309 -26.508523 7.562207 7.647609 10.093928 73.484038 -5.953246 16.608472 3.493430 12.332181 7.078474 26.345479 8.599096 -1.188200 0.000000 29.323209 0.000000 19.739237 -7.556445 -12.926299 0.000000 -13.873697 0.000000 -21.593412 -26.920795 19.674654 0.000000 12.165391 0.000000 -14.696152 8.778981 -16.923532 0.000000 -15.726612 0.000000
-110.153040 88.744318 56.962848 31.176087 8.236086 -10.629396 -3.116046 1.971992 8.648797 -2.955338 0.873689 5.798837 -2.575083 -1.214669 3.552063 -3.135985 -1.592196 1.977746 -7.277429 -0.183726 1.448174 -3.437215 14.130645 -0.701488 3.189801 3.122152 21.314554 -16.441588 25.942915 -31.502937 -91.174062 12.249231 -21.725025 2.376782 -2.741584 15.321213 -7.715958 4.649131 -25.693699 6.164201 9.748791 10.626272 77.163983 -6.812916 17.556170 4.256945 11.381394 7.409163 26.905133 7.743013 -1.105878 0.000000 32.302011 0.000000 20.166384 -8.085238 -12.551100 0.000000 -13.757187 0.000000 -20.271065 -26.798853 19.788820 0.000000 11.743312 0.000000 -14.774837 8.857982 -16.132090 0.000000 -15.828350 0.000000
-109.597583 88.814117 58.000214 29.207056 8.558341 -10.760972 -2.666902 1.828509 8.694741 -2.518533 0.556315 5.989357 -2.516464 -1.272970 3.618611 -3.002408 -1.712765 1.747465 -6.901118 0.119331 1.603654 -3.289883 13.877431 -0.706380 4.534375 3.326971 21.005384 -14.056538 28.308045 -32.293239 -95.368478 11.972522 -22.883859 2.748874 -2.698633 13.755729 -8.972233 4.529478 -24.789942 3.901198 11.584567 11.256934 80.769110 -7.387546 18.981535 4.727759 11.034707 8.464760 27.308300 7.034003 -1.011288 0.000000 35.573195 0.000000 20.291006 -8.925565 -11.450789 0.000000 -13.584937 0.000000 -18.931944 -26.744551 19.808916 0.000000 11.842445 0.000000 -14.962524 8.584076 -14.752732 0.000000 -15.762855 0.000000
-109.058875 88.784961 59.029541 27.100217 8.824491 -10.906119 -2.127506 1.811688 8.755951 -2.045121 0.292334 6.058365 -2.425749 -1.300659 3.561215 -2.882073 -1.980583 1.633972 -6.507761 0.287519 2.253229 -3.258097 13.548527 -1.263542 5.763453 3.021386 20.710914 -11.319751 30.983696 -32.838686 -99.635487 11.590212 -23.954732 3.206384 -2.372497 11.454963 -10.394285 4.343129 -23.675979 1.836383 13.640474 11.709363 83.945460 -8.082326 20.148242 5.423257 10.266502 8.373717 27.584318 6.330966 -0.978375 0.000000 39.177079 0.000000 20.317447 -10.024184 -10.770201 0.000000 -12.947525 0.000000 -17.424454 -26.804977 19.821843 0.000000 11.873752 0.000000 -15.075189 9.026654 -14.042214 0.000000 -16.015786 0.000000
-108.556250 88.700244 60.036230 24.993694 9.025907 -11.066600 -1.590816 1.682672 8.842513 -1.576014 0.121810 6.044023 -2.266802 -1.351370 3.453795 -2.737472 -2.075107 1.757937 -6.314690 0.610260 2.251294 -3.172927 12.864682 -1.417050 6.958107 2.922456 20.025709 -7.494272 32.102258 -32.488756 -103.902469 11.257727 -26.023615 3.573492 -2.612758 9.850050 -11.660833 4.022893 -22.817483 -0.511554 15.491809 12.404971 86.751992 -8.582847 21.512127 6.056551 8.960088 8.676904 27.579027 5.601054 -1.015140 0.000000 42.913757 0.000000 20.149188 -10.928239 -9.796622 0.000000 -12.847489 0.000000 -16.336714 -26.798077 19.999276 0.000000 11.874697 0.000000 -13.994748 10.267108 -13.769723 0.000000 -15.277100 0.000000
-108.074268 88.593457 61.029010 22.795088 9.029552 -11.375391 -0.998877 2.002949 8.994769 -1.121614 0.112248 6.093853 -1.925216 -1.633654 3.528889 -2.410052 -2.664818 1.838461 -6.290292 1.244157 1.953532 -3.124530 12.126889 -1.503221 8.273792 2.956865 19.187560 -4.445975 33.550377 -32.213026 -107.090594 10.360325 -27.097734 3.359180 -2.715828 7.446660 -13.007923 3.817912 -21.982211 -3.150414 17.264921 12.974168 89.056907 -9.658714 22.744666 6.293115 6.763025 9.371063 27.779746 4.993648 -0.790587 0.000000 46.784767 0.000000 19.589828 -12.032171 -8.568089 0.000000 -11.640426 0.000000 -15.855155 -26.554273 20.576067 0.000000 12.244874 0.000000 -12.490650 10.869708 -14.526032 0.000000 -13.554121 0.000000
-107.630225 88.467627 61.999042 20.633553 9.066278 -11.804900 -0.450133 2.479806 9.213390 -0.752845 -0.056712 6.192753 -1.595268 -2.006618 3.918683 -2.051580 -3.277960 1.366108 -6.263087 2.214845 1.962202 -3.126689 11.145875 -1.736473 9.704880 2.965194 18.621867 -1.841938 35.140734 -32.123784 -109.623434 9.672926 -27.696377 3.342647 -3.554850 5.530495 -14.104828 3.720027 -21.117523 -5.806703 19.266902 13.895630 91.090804 -10.100219 24.050161 6.304704 3.263238 9.487649 27.798224 4.214276 -0.535223 0.000000 50.721950 0.000000 18.826546 -12.856081 -7.259430 0.000000 -11.239838 0.000000 -16.080275 -26.311421 21.472393 0.000000 13.116157 0.000000 -10.442382 10.842942 -14.635279 0.000000 -13.374836 0.000000
